<svg width="200" height="200" viewBox="0 0 200 200" fill="none" xmlns="http://www.w3.org/2000/svg">
  <rect width="200" height="200" fill="#F3F4F6"/>
  <path d="M100 70C91.716 70 85 76.716 85 85C85 93.284 91.716 100 100 100C108.284 100 115 93.284 115 85C115 76.716 108.284 70 100 70ZM100 95C94.486 95 90 90.514 90 85C90 79.486 94.486 75 100 75C105.514 75 110 79.486 110 85C110 90.514 105.514 95 100 95Z" fill="#9CA3AF"/>
  <path d="M140 65H60C57.239 65 55 67.239 55 70V130C55 132.761 57.239 135 60 135H140C142.761 135 145 132.761 145 130V70C145 67.239 142.761 65 140 65ZM140 130H60V70H140V130Z" fill="#9CA3AF"/>
  <path d="M65 125L80 110C81.573 108.427 84.177 108.427 85.75 110L120 145M115 145L130 130C131.573 128.427 134.177 128.427 135.75 130L150 145M120 85H120.01" stroke="#9CA3AF" stroke-width="5" stroke-linecap="round" stroke-linejoin="round"/>
</svg> 